<?xml version="1.0" encoding="utf-8"?>
<!-- Generator: Adobe Illustrator 24.1.0, SVG Export Plug-In . SVG Version: 6.00 Build 0)  -->
<svg version="1.1" id="_x31_" xmlns="http://www.w3.org/2000/svg" xmlns:xlink="http://www.w3.org/1999/xlink" x="0px" y="0px"
	 viewBox="0 0 100 100" style="enable-background:new 0 0 100 100;" xml:space="preserve">
<style type="text/css">
	.st0{fill:#E67A85;}
	.st1{opacity:0.1;fill:#040000;enable-background:new    ;}
	.st2{opacity:0.6;fill:#E7E6E1;enable-background:new    ;}
	.st3{fill:#E9CB53;}
	.st4{fill:#F9F9F7;}
	.st5{fill:#E7E6E1;}
	.st6{opacity:0.1;fill:#E7E6E1;enable-background:new    ;}
	.st7{opacity:0.2;fill:#FFFFFF;enable-background:new    ;}
</style>
<g>
	<rect x="0" y="0.2" class="st0" width="99.8" height="99.8"/>
	<path class="st1" d="M99.8,62.3V100H40.2L22.1,81.9c0-0.6,0-0.9,0-1.6l1.9-3.1v-0.9l-2.8-33.7l1.9-1.9l20-20
		c0.3,0.3,0.6,0.9,0.9,1.2c1.2-2.2,3.7-3.7,6.2-3.7c3.7,0,6.9,2.8,7.5,6.2c0.6-0.3,1.2-0.3,1.9-0.3c0.9,0,1.9,0.3,2.8,0.6L99.8,62.3
		z"/>
	<g>
		<g>
			<polygon class="st2" points="65.2,37 64.9,40.1 64.9,40.1 64.6,46 63.3,63.2 62.7,69.1 62.1,76.3 62.1,76.9 24,76.9 24,76.3 
				21.2,42.6 20.9,37.3 20.9,37 			"/>
			<path class="st2" d="M61.8,83.5H24.3c-0.3,0-0.3,0-0.6,0c-0.9-0.3-1.6-0.9-1.9-1.9c0-0.6,0-0.9,0-1.6l1.9-3.1h38l1.9,3.4
				C64.6,81.9,63.3,83.5,61.8,83.5z"/>
			<polygon class="st3" points="58.3,73.2 27.8,73.2 24.6,40.7 61.4,40.7 			"/>
			<path class="st2" d="M79.2,45.4v18.4c0,2.8-2.5,5.3-5.3,5.3H62.7l0.3-5.9h10.3V45.7h-9l0.3-5.9h9C77,40.1,79.2,42.6,79.2,45.4z"
				/>
			<circle class="st4" cx="28.1" cy="35.1" r="7.5"/>
			<circle class="st4" cx="29.3" cy="23.9" r="7.5"/>
			<circle class="st4" cx="35.6" cy="38.9" r="7.5"/>
			<circle class="st4" cx="45.8" cy="36.4" r="7.5"/>
			<circle class="st4" cx="54" cy="37.9" r="7.5"/>
			<path class="st4" d="M58,25.8c0,1.9-0.6,3.7-1.9,5c-0.9,0.9-2.2,1.9-3.4,2.2l0,0c-0.6,0.3-1.2,0.3-1.9,0.3s-1.2,0-2.2-0.3
				c-1.9-0.6-3.1-1.6-4.1-3.1c0-0.3-0.3-0.3-0.3-0.6c-0.6-0.9-0.9-2.2-0.9-3.4c0-1.6,0.3-2.8,0.9-3.7c1.2-2.2,3.7-3.7,6.2-3.7
				c3.7,0,6.9,2.8,7.5,6.2C57.7,24.8,58,25.5,58,25.8z"/>
			<path class="st4" d="M67.1,31.7c0,2.2-0.9,4.1-2.2,5.3c-0.9,0.9-2.2,1.9-3.7,2.2c-0.6,0-0.9,0.3-1.6,0.3c-2.2,0-4.1-0.9-5.3-2.2
				c-0.3-0.3-0.6-0.9-0.9-1.2c-0.6-0.6-0.9-1.6-0.9-2.5v-0.3c0-0.3,0-0.6,0-0.9c0-0.3,0-0.6,0-0.9c0.3-3.1,2.5-5.3,5.3-6.2
				c0.6-0.3,1.2-0.3,1.9-0.3c0.9,0,1.9,0.3,2.8,0.6c1.9,0.6,3.4,2.2,4.4,4.4C67.1,29.8,67.1,30.8,67.1,31.7z"/>
			<path class="st4" d="M45.2,26.1c0,1.2-0.3,2.2-0.6,3.1c0,0.3-0.3,0.6-0.3,0.6c-0.9,1.6-2.2,2.5-4.1,3.1c-0.3,0-0.6,0.3-1.2,0.3
				c-0.3,0-0.9,0-1.2,0c-0.9,0-1.9-0.3-2.5-0.6s-1.6-0.6-2.2-1.2c-0.3,0-0.3-0.3-0.3-0.3c-0.3-0.3-0.3-0.3-0.6-0.6
				c-0.6-0.3-1.2-1.2-1.6-2.2c0-0.6-0.3-1.6-0.3-2.2c0-3.1,1.9-5.9,4.7-6.9c0.9-0.3,1.9-0.6,2.8-0.6c2.2,0,4.1,0.9,5.3,2.2
				c0.3,0.3,0.6,0.9,0.9,1.2C44.9,23.3,45.2,24.5,45.2,26.1z"/>
			<circle class="st5" cx="29.9" cy="48.2" r="0.9"/>
			<circle class="st5" cx="36.2" cy="56.3" r="0.9"/>
			<circle class="st5" cx="38.7" cy="50.7" r="0.9"/>
			<circle class="st5" cx="46.2" cy="47.9" r="0.9"/>
			<circle class="st5" cx="50.8" cy="54.8" r="0.9"/>
			<circle class="st5" cx="54" cy="48.2" r="0.9"/>
			<polygon class="st6" points="62.1,76.3 62.1,76.9 24,76.9 24,76.3 			"/>
		</g>
		<path class="st7" d="M44,22c-0.3-0.3-0.6-0.6-0.9-1.2c-1.2-1.2-3.1-2.2-5.3-2.2c-0.9,0-1.9,0.3-2.8,0.6c-1.2-1.6-3.4-2.8-5.6-2.8
			c-4.1,0-7.5,3.4-7.5,7.5c0,1.9,0.6,3.7,1.9,5c-1.9,1.2-3.4,3.7-3.4,6.2c0,0.9,0,1.6,0.3,2.2l0.3,5.3L23.4,76v0.9L21.5,80
			c0.3,0.6,0.3,1.2,0.6,1.9c0.3,0.9,0.9,1.6,1.9,1.9c0.3,0,0.3,0,0.6,0h23.1V18.9C45.8,19.5,44.9,20.8,44,22z"/>
	</g>
</g>
</svg>
