<?xml version="1.0" encoding="utf-8"?>
<!-- Generator: Adobe Illustrator 24.1.0, SVG Export Plug-In . SVG Version: 6.00 Build 0)  -->
<svg version="1.1" id="_x31_" xmlns="http://www.w3.org/2000/svg" xmlns:xlink="http://www.w3.org/1999/xlink" x="0px" y="0px"
	 viewBox="0 0 64 64" style="enable-background:new 0 0 64 64;" xml:space="preserve">
<style type="text/css">
	.st0{fill:#E67A85;}
	.st1{opacity:0.1;fill:#040000;enable-background:new    ;}
	.st2{opacity:0.6;fill:#E7E6E1;enable-background:new    ;}
	.st3{fill:#E9CB53;}
	.st4{fill:#F9F9F7;}
	.st5{fill:#E7E6E1;}
	.st6{opacity:0.1;fill:#E7E6E1;enable-background:new    ;}
	.st7{opacity:0.2;fill:#FFFFFF;enable-background:new    ;}
</style>
<g>
	<rect class="st0" width="64" height="64"/>
	<path class="st1" d="M64,39.8V64H25.8L14.2,52.4c0-0.4,0-0.6,0-1l1.2-2v-0.6l-1.8-21.6l1.2-1.2l12.8-12.8c0.2,0.2,0.4,0.6,0.6,0.8
		c0.8-1.4,2.4-2.4,4-2.4c2.4,0,4.4,1.8,4.8,4c0.4-0.2,0.8-0.2,1.2-0.2c0.6,0,1.2,0.2,1.8,0.4L64,39.8z"/>
	<g>
		<g>
			<polygon class="st2" points="41.8,23.6 41.6,25.6 41.6,25.6 41.4,29.4 40.6,40.4 40.2,44.2 39.8,48.8 39.8,49.2 15.4,49.2 
				15.4,48.8 13.6,27.2 13.4,23.8 13.4,23.6 			"/>
			<path class="st2" d="M39.6,53.4h-24c-0.2,0-0.2,0-0.4,0c-0.6-0.2-1-0.6-1.2-1.2c0-0.4,0-0.6,0-1l1.2-2h24.4l1.2,2.2
				C41.4,52.4,40.6,53.4,39.6,53.4z"/>
			<polygon class="st3" points="37.4,46.8 17.8,46.8 15.8,26 39.4,26 			"/>
			<path class="st2" d="M50.8,29v11.8c0,1.8-1.6,3.4-3.4,3.4h-7.2l0.2-3.8H47V29.2h-5.8l0.2-3.8h5.8C49.4,25.6,50.8,27.2,50.8,29z"
				/>
			<circle class="st4" cx="18" cy="22.4" r="4.8"/>
			<circle class="st4" cx="18.8" cy="15.2" r="4.8"/>
			<circle class="st4" cx="22.8" cy="24.8" r="4.8"/>
			<circle class="st4" cx="29.4" cy="23.2" r="4.8"/>
			<circle class="st4" cx="34.6" cy="24.2" r="4.8"/>
			<path class="st4" d="M37.2,16.4c0,1.2-0.4,2.4-1.2,3.2c-0.6,0.6-1.4,1.2-2.2,1.4l0,0c-0.4,0.2-0.8,0.2-1.2,0.2s-0.8,0-1.4-0.2
				c-1.2-0.4-2-1-2.6-2c0-0.2-0.2-0.2-0.2-0.4c-0.4-0.6-0.6-1.4-0.6-2.2c0-1,0.2-1.8,0.6-2.4c0.8-1.4,2.4-2.4,4-2.4
				c2.4,0,4.4,1.8,4.8,4C37,15.8,37.2,16.2,37.2,16.4z"/>
			<path class="st4" d="M43,20.2c0,1.4-0.6,2.6-1.4,3.4c-0.6,0.6-1.4,1.2-2.4,1.4c-0.4,0-0.6,0.2-1,0.2c-1.4,0-2.6-0.6-3.4-1.4
				c-0.2-0.2-0.4-0.6-0.6-0.8c-0.4-0.4-0.6-1-0.6-1.6v-0.2c0-0.2,0-0.4,0-0.6s0-0.4,0-0.6c0.2-2,1.6-3.4,3.4-4
				c0.4-0.2,0.8-0.2,1.2-0.2c0.6,0,1.2,0.2,1.8,0.4c1.2,0.4,2.2,1.4,2.8,2.8C43,19,43,19.6,43,20.2z"/>
			<path class="st4" d="M29,16.6c0,0.8-0.2,1.4-0.4,2c0,0.2-0.2,0.4-0.2,0.4c-0.6,1-1.4,1.6-2.6,2c-0.2,0-0.4,0.2-0.8,0.2
				c-0.2,0-0.6,0-0.8,0c-0.6,0-1.2-0.2-1.6-0.4c-0.4-0.2-1-0.4-1.4-0.8C21,20,21,19.8,21,19.8c-0.2-0.2-0.2-0.2-0.4-0.4
				c-0.4-0.2-0.8-0.8-1-1.4c0-0.4-0.2-1-0.2-1.4c0-2,1.2-3.8,3-4.4c0.6-0.2,1.2-0.4,1.8-0.4c1.4,0,2.6,0.6,3.4,1.4
				c0.2,0.2,0.4,0.6,0.6,0.8C28.8,14.8,29,15.6,29,16.6z"/>
			<circle class="st5" cx="19.2" cy="30.8" r="0.6"/>
			<circle class="st5" cx="23.2" cy="36" r="0.6"/>
			<circle class="st5" cx="24.8" cy="32.4" r="0.6"/>
			<circle class="st5" cx="29.6" cy="30.6" r="0.6"/>
			<circle class="st5" cx="32.6" cy="35" r="0.6"/>
			<circle class="st5" cx="34.6" cy="30.8" r="0.6"/>
			<polygon class="st6" points="39.8,48.8 39.8,49.2 15.4,49.2 15.4,48.8 			"/>
		</g>
		<path class="st7" d="M28.2,14c-0.2-0.2-0.4-0.4-0.6-0.8c-0.8-0.8-2-1.4-3.4-1.4c-0.6,0-1.2,0.2-1.8,0.4c-0.8-1-2.2-1.8-3.6-1.8
			c-2.6,0-4.8,2.2-4.8,4.8c0,1.2,0.4,2.4,1.2,3.2c-1.2,0.8-2.2,2.4-2.2,4c0,0.6,0,1,0.2,1.4l0.2,3.4L15,48.6v0.6l-1.2,2
			c0.2,0.4,0.2,0.8,0.4,1.2c0.2,0.6,0.6,1,1.2,1.2c0.2,0,0.2,0,0.4,0h14.8V12C29.4,12.4,28.8,13.2,28.2,14z"/>
	</g>
</g>
</svg>
